<?xml version="1.0" standalone="no"?>
<!DOCTYPE svg PUBLIC "-//W3C//DTD SVG 20010904//EN"
 "http://www.w3.org/TR/2001/REC-SVG-20010904/DTD/svg10.dtd">
<svg version="1.0" xmlns="http://www.w3.org/2000/svg"
 width="512.000000pt" height="512.000000pt" viewBox="0 0 512.000000 512.000000"
 preserveAspectRatio="xMidYMid meet">

<g transform="translate(0.000000,512.000000) scale(0.100000,-0.100000)"
fill="#000000" stroke="none">
<path d="M2063 4936 c-910 -216 -1619 -916 -1833 -1811 -49 -206 -64 -331 -64
-540 0 -1097 773 -2074 1859 -2350 221 -56 339 -69 620 -70 308 0 475 22 735
96 591 169 1128 583 1450 1118 86 143 130 239 130 281 0 56 -38 111 -93 139
l-48 24 -102 -17 c-636 -106 -1233 38 -1732 418 -412 313 -709 806 -799 1328
-67 385 -18 779 140 1139 41 92 43 149 7 197 -55 73 -116 84 -270 48z m-138
-415 c-16 -46 -49 -198 -64 -291 -72 -460 13 -968 238 -1413 314 -621 874
-1084 1541 -1271 239 -67 520 -103 743 -94 64 3 117 3 117 0 0 -21 -166 -219
-269 -323 -251 -250 -530 -423 -857 -532 -756 -251 -1567 -97 -2154 410 -419
362 -680 875 -732 1441 -43 472 137 1033 460 1433 226 280 535 507 871 640
123 49 124 49 106 0z"/>
</g>
</svg>
