<?xml version="1.0" standalone="no"?>
<!DOCTYPE svg PUBLIC "-//W3C//DTD SVG 20010904//EN"
 "http://www.w3.org/TR/2001/REC-SVG-20010904/DTD/svg10.dtd">
<svg version="1.0" xmlns="http://www.w3.org/2000/svg"
 width="512.000000pt" height="512.000000pt" viewBox="0 0 512.000000 512.000000"
 preserveAspectRatio="xMidYMid meet">

<g transform="translate(0.000000,512.000000) scale(0.100000,-0.100000)"
fill="#000000" stroke="none">
<path d="M988 4411 c-152 -49 -255 -161 -287 -311 -9 -41 -11 -321 -9 -1090
l3 -1035 22 -55 c47 -113 135 -200 250 -243 57 -22 65 -22 760 -25 l702 -3 3
-460 3 -461 24 -19 c22 -18 46 -19 552 -19 516 0 530 1 549 20 19 19 20 33 20
245 l0 225 164 0 c150 0 165 2 190 21 l26 20 0 213 0 213 68 6 c177 15 310
111 376 271 21 50 21 62 24 1086 2 769 0 1049 -9 1090 -33 154 -149 275 -303
316 -42 11 -313 14 -1561 13 -1433 0 -1513 -1 -1567 -18z m3124 -141 c68 -26
133 -90 158 -158 19 -51 20 -79 20 -1066 0 -1123 3 -1074 -66 -1154 -48 -56
-119 -91 -200 -99 l-64 -6 0 244 c0 180 -4 261 -15 307 -39 167 -164 320 -317
391 -45 21 -107 44 -136 50 -34 7 -203 11 -465 11 -573 0 -538 12 -832 -281
l-199 -199 -203 202 -203 203 0 416 c0 406 -1 417 -21 443 -25 32 -70 35 -99
6 -19 -19 -20 -33 -20 -417 l0 -397 -145 -146 c-119 -121 -145 -152 -145 -175
0 -25 47 -76 313 -343 l312 -313 -375 3 -375 3 -51 27 c-29 15 -68 46 -88 70
-69 80 -66 31 -66 1154 0 987 1 1015 20 1066 25 67 89 132 156 158 48 19 92
19 1551 20 1473 0 1504 0 1555 -20z m-611 -1640 c147 -45 254 -152 299 -299
19 -59 20 -94 20 -537 l0 -474 -120 0 -120 0 0 413 c0 382 -1 415 -17 429 -42
35 -91 27 -112 -19 -8 -17 -11 -217 -11 -668 l0 -645 -435 0 -435 0 0 690 c0
677 0 690 -20 710 -44 44 -61 33 -264 -169 -105 -105 -204 -195 -219 -200 -40
-15 -113 -14 -145 3 -15 8 -154 142 -310 298 l-282 283 85 85 85 85 238 -238
c183 -183 243 -237 262 -237 19 0 76 51 245 220 121 122 235 230 253 242 72
44 96 47 528 47 382 1 416 0 475 -19z m-1071 -735 l0 -105 -107 0 -108 0 105
105 c58 58 106 105 107 105 2 0 3 -47 3 -105z"/>
<path d="M2952 3779 c-130 -22 -248 -112 -309 -237 -37 -74 -38 -79 -38 -181
1 -86 5 -117 23 -161 70 -174 236 -278 427 -268 302 16 489 338 355 613 -82
169 -272 266 -458 234z m194 -159 c55 -24 121 -91 146 -148 29 -65 29 -161 -1
-227 -46 -103 -132 -165 -242 -173 -95 -7 -159 17 -225 82 -65 66 -89 130 -82
225 6 76 25 120 77 174 85 91 213 117 327 67z"/>
</g>
</svg>
