<?xml version="1.0" standalone="no"?>
<!DOCTYPE svg PUBLIC "-//W3C//DTD SVG 20010904//EN"
 "http://www.w3.org/TR/2001/REC-SVG-20010904/DTD/svg10.dtd">
<svg version="1.0" xmlns="http://www.w3.org/2000/svg"
 width="512.000000pt" height="512.000000pt" viewBox="0 0 512.000000 512.000000"
 preserveAspectRatio="xMidYMid meet">

<g transform="translate(0.000000,512.000000) scale(0.100000,-0.100000)"
fill="#000000" stroke="none">
<path d="M2406 5110 c-423 -67 -770 -378 -875 -785 -113 -437 64 -906 435
-1152 l54 -36 0 -63 0 -64 -159 0 c-103 0 -188 -6 -242 -16 -260 -49 -482
-217 -599 -452 l-31 -62 -150 0 -151 0 -29 -29 -29 -29 0 -360 0 -359 -44 -17
c-63 -24 -130 -87 -162 -152 -39 -79 -39 -179 0 -258 32 -65 100 -129 159
-149 l42 -14 5 -324 c5 -343 8 -364 53 -373 12 -3 119 -7 237 -10 256 -7 425
-25 655 -71 290 -58 553 -143 810 -262 77 -36 152 -67 166 -70 18 -3 59 12
136 50 340 171 716 293 1085 352 167 26 280 37 475 43 182 7 194 8 215 30 23
22 23 27 28 329 l5 306 42 14 c59 20 127 84 159 149 39 79 39 179 0 258 -32
64 -99 128 -161 152 l-44 16 -3 389 -3 388 -23 23 c-22 22 -29 23 -188 23
l-165 0 -31 57 c-75 140 -203 259 -363 337 -146 72 -197 82 -422 88 l-193 5 0
63 c0 60 1 64 33 82 115 69 252 209 333 341 374 610 49 1410 -644 1588 -109
28 -313 40 -416 24z m414 -194 c307 -99 530 -332 611 -641 23 -88 24 -125 3
-125 -35 0 -114 25 -189 59 -131 61 -239 173 -292 304 -30 76 -58 107 -94 107
-46 0 -59 -10 -104 -80 -93 -145 -247 -275 -403 -339 -164 -68 -392 -101 -582
-85 l-105 9 3 35 c20 253 205 537 437 669 163 94 277 121 480 117 131 -3 161
-7 235 -30z m55 -611 c105 -153 306 -281 495 -315 36 -6 70 -13 76 -15 17 -5
-9 -135 -47 -240 -62 -170 -219 -360 -373 -449 -37 -22 -71 -47 -77 -57 -5
-10 -9 -76 -9 -147 l0 -128 -37 -44 c-47 -54 -123 -103 -204 -130 -52 -18 -81
-21 -159 -18 -85 3 -104 8 -173 40 -52 25 -96 56 -132 92 l-55 55 0 136 c0
157 8 142 -122 227 -97 63 -200 171 -265 277 -52 84 -110 239 -120 320 l-5 46
163 -3 c181 -3 282 7 425 43 198 50 365 144 499 281 44 45 80 82 81 83 0 1 18
-24 39 -54z m-751 -1533 c130 -123 264 -177 441 -176 175 1 300 52 431 176
l71 68 190 0 c207 0 260 -9 370 -60 80 -37 139 -78 197 -136 41 -41 106 -125
106 -137 0 -3 -26 -8 -57 -11 -370 -43 -827 -178 -1195 -353 l-117 -56 -164
71 c-388 167 -740 260 -1169 307 -32 4 -58 8 -58 11 0 10 55 92 92 136 77 93
224 183 346 213 38 9 124 14 251 14 l194 1 71 -68z m2196 -714 l0 -303 -87 0
c-75 -1 -95 -5 -139 -27 -182 -95 -222 -339 -78 -481 51 -51 72 -61 196 -96
l103 -28 3 -250 2 -250 -122 -7 c-528 -30 -1003 -146 -1472 -360 -43 -20 -80
-36 -82 -36 -2 0 -4 387 -4 861 l0 860 123 58 c458 218 1001 350 1465 359 l92
2 0 -302z m-3065 237 c401 -45 787 -153 1158 -324 l67 -31 0 -860 c0 -473 -3
-860 -7 -860 -3 0 -70 27 -148 59 -439 183 -949 291 -1378 291 l-147 0 2 277
3 277 35 8 c148 37 203 60 252 106 67 62 90 111 96 198 6 93 -15 158 -73 222
-63 70 -127 97 -232 97 l-83 0 0 284 0 284 163 -6 c89 -4 221 -14 292 -22z
m-289 -724 c80 -49 81 -174 1 -225 -12 -8 -77 -29 -143 -47 -140 -36 -177 -35
-223 12 -78 78 -38 199 76 229 26 7 75 21 108 31 79 24 142 24 181 0z m3334 9
c19 -6 68 -20 108 -31 89 -24 115 -40 136 -84 32 -67 8 -143 -55 -177 -45 -24
-63 -23 -203 14 -137 36 -179 65 -191 132 -21 110 81 182 205 146z"/>
<path d="M3550 1735 c-154 -24 -381 -112 -446 -172 -31 -28 -33 -84 -4 -113
37 -37 60 -34 166 19 152 76 250 102 425 110 122 5 150 9 167 24 44 40 28 116
-28 136 -43 14 -173 13 -280 -4z"/>
<path d="M3595 1169 c-173 -21 -397 -101 -484 -174 -40 -34 -43 -84 -6 -120
33 -34 62 -31 148 15 146 79 312 120 487 120 87 0 98 2 117 23 11 12 23 30 26
39 9 24 -9 71 -33 85 -27 17 -160 23 -255 12z"/>
<path d="M1292 1709 c-41 -12 -67 -64 -52 -103 17 -46 43 -54 210 -59 179 -5
249 -22 399 -93 51 -24 105 -44 118 -44 33 0 73 42 73 77 0 47 -28 73 -124
119 -106 50 -232 88 -340 103 -93 13 -238 13 -284 0z"/>
<path d="M1320 1143 c-63 -8 -98 -58 -79 -113 6 -17 19 -35 29 -40 10 -6 72
-10 137 -10 176 0 373 -49 489 -121 43 -26 95 -25 122 4 25 27 29 73 8 102
-30 44 -237 130 -381 160 -76 15 -267 26 -325 18z"/>
</g>
</svg>
